# xmcd
#
# Track frame offsets:
#	151
#	15416
#	30451
#	42034
#	53997
#	68218
#	81763
#	95682
#	109601
#	122762
#
# Disc length: 1821
#
# Revision: 3
# Processed by: cddbd v1.5.1PL0 Copyright (c) Steve Scherf et al.
# Submitted via: EasyCDDAExtractor 7.0.6.1
# Normalized: r2:DSETVAR1
#
DISCID=76071b0a
DTITLE=Various Artist - Lupita D'alessio y Artistas Varios
DYEAR=2003
DGENRE=Ballad
TTITLE0=Lupita D'alessio - Ni loca
TTITLE1=Mario Quintero - Nomas contigo
TTITLE2=Lupita D'alessio - Te doy de baja
TTITLE3=Benny Ibarra - Cenizas
TTITLE4=Lupita D'alessio - Punto y coma
TTITLE5=Ricardo Arjona - La mujer que no soñe
TTITLE6=Lupita D'alessio - Que miedo tienes
TTITLE7=Johnny Dynamo - Palabras
TTITLE8=Lupita D'alessio - Solo soy una mujer
TTITLE9=Yaco Monti - Siempre te recordare
EXTD=
EXTT0=
EXTT1=
EXTT2=
EXTT3=
EXTT4=
EXTT5=
EXTT6=
EXTT7=
EXTT8=
EXTT9=
PLAYORDER=
